<svg width="918" height="74" viewBox="0 0 918 74" fill="none" xmlns="http://www.w3.org/2000/svg">
<rect width="918" height="74" rx="8" fill="white"/>
<path d="M754.16 33.1511H749.5V35.6711H753.9V38.9911H749.5V41.5911H754.16V44.9111H745.58V29.8311H754.16V33.1511ZM760.526 39.3511L756.366 34.6511H761.086L762.846 36.7711L764.646 34.6511H769.366L765.106 39.3511L770.246 44.9111H765.446L762.826 41.8711L760.186 44.9111H755.406L760.526 39.3511ZM779.67 39.8111C779.67 39.4911 779.61 39.1911 779.49 38.9111C779.383 38.6178 779.223 38.3644 779.01 38.1511C778.797 37.9378 778.543 37.7711 778.25 37.6511C777.97 37.5178 777.663 37.4511 777.33 37.4511C777.01 37.4511 776.71 37.5111 776.43 37.6311C776.15 37.7511 775.903 37.9178 775.69 38.1311C775.49 38.3444 775.323 38.5978 775.19 38.8911C775.07 39.1711 775.01 39.4711 775.01 39.7911C775.01 40.1111 775.07 40.4111 775.19 40.6911C775.31 40.9711 775.477 41.2178 775.69 41.4311C775.903 41.6311 776.15 41.7978 776.43 41.9311C776.723 42.0511 777.03 42.1111 777.35 42.1111C777.67 42.1111 777.97 42.0511 778.25 41.9311C778.53 41.8111 778.77 41.6444 778.97 41.4311C779.183 41.2178 779.35 40.9711 779.47 40.6911C779.603 40.4111 779.67 40.1178 779.67 39.8111ZM775.11 50.0311H771.49V34.6511H775.11V35.7911C775.883 34.8178 776.937 34.3311 778.27 34.3311C779.003 34.3311 779.683 34.4778 780.31 34.7711C780.95 35.0511 781.503 35.4378 781.97 35.9311C782.437 36.4244 782.797 37.0044 783.05 37.6711C783.317 38.3378 783.45 39.0511 783.45 39.8111C783.45 40.5711 783.317 41.2778 783.05 41.9311C782.797 42.5844 782.437 43.1578 781.97 43.6511C781.517 44.1444 780.977 44.5311 780.35 44.8111C779.723 45.0911 779.043 45.2311 778.31 45.2311C777.03 45.2311 775.963 44.7911 775.11 43.9111V50.0311ZM793.013 38.2911C792.893 37.7844 792.647 37.3778 792.273 37.0711C791.9 36.7644 791.447 36.6111 790.913 36.6111C790.353 36.6111 789.893 36.7578 789.533 37.0511C789.187 37.3444 788.967 37.7578 788.873 38.2911H793.013ZM788.773 40.3911C788.773 41.9511 789.507 42.7311 790.973 42.7311C791.76 42.7311 792.353 42.4111 792.753 41.7711H796.253C795.547 44.1178 793.78 45.2911 790.953 45.2911C790.087 45.2911 789.293 45.1644 788.573 44.9111C787.853 44.6444 787.233 44.2711 786.713 43.7911C786.207 43.3111 785.813 42.7378 785.533 42.0711C785.253 41.4044 785.113 40.6578 785.113 39.8311C785.113 38.9778 785.247 38.2111 785.513 37.5311C785.78 36.8378 786.16 36.2511 786.653 35.7711C787.147 35.2911 787.74 34.9244 788.433 34.6711C789.14 34.4044 789.933 34.2711 790.813 34.2711C791.68 34.2711 792.46 34.4044 793.153 34.6711C793.847 34.9244 794.433 35.2978 794.913 35.7911C795.393 36.2844 795.76 36.8911 796.013 37.6111C796.267 38.3178 796.393 39.1178 796.393 40.0111V40.3911H788.773ZM798.463 34.6511H802.083V36.3311C802.469 35.7178 802.943 35.2511 803.503 34.9311C804.063 34.5978 804.716 34.4311 805.463 34.4311C805.556 34.4311 805.656 34.4311 805.763 34.4311C805.883 34.4311 806.016 34.4444 806.163 34.4711V37.9311C805.683 37.6911 805.163 37.5711 804.603 37.5711C803.763 37.5711 803.129 37.8244 802.703 38.3311C802.289 38.8244 802.083 39.5511 802.083 40.5111V44.9111H798.463V34.6511ZM811.399 34.6511V44.9111H807.779V34.6511H811.399ZM807.539 30.7111C807.539 30.4311 807.592 30.1711 807.699 29.9311C807.806 29.6778 807.952 29.4578 808.139 29.2711C808.326 29.0844 808.539 28.9378 808.779 28.8311C809.032 28.7244 809.299 28.6711 809.579 28.6711C809.859 28.6711 810.119 28.7244 810.359 28.8311C810.612 28.9378 810.832 29.0844 811.019 29.2711C811.206 29.4578 811.352 29.6778 811.459 29.9311C811.566 30.1711 811.619 30.4311 811.619 30.7111C811.619 30.9911 811.566 31.2578 811.459 31.5111C811.352 31.7511 811.206 31.9644 811.019 32.1511C810.832 32.3378 810.612 32.4844 810.359 32.5911C810.119 32.6978 809.859 32.7511 809.579 32.7511C809.299 32.7511 809.032 32.6978 808.779 32.5911C808.539 32.4844 808.326 32.3378 808.139 32.1511C807.952 31.9644 807.806 31.7511 807.699 31.5111C807.592 31.2578 807.539 30.9911 807.539 30.7111ZM821.373 38.2911C821.253 37.7844 821.006 37.3778 820.633 37.0711C820.259 36.7644 819.806 36.6111 819.273 36.6111C818.713 36.6111 818.253 36.7578 817.893 37.0511C817.546 37.3444 817.326 37.7578 817.233 38.2911H821.373ZM817.133 40.3911C817.133 41.9511 817.866 42.7311 819.333 42.7311C820.119 42.7311 820.713 42.4111 821.113 41.7711H824.613C823.906 44.1178 822.139 45.2911 819.313 45.2911C818.446 45.2911 817.653 45.1644 816.933 44.9111C816.213 44.6444 815.593 44.2711 815.073 43.7911C814.566 43.3111 814.173 42.7378 813.893 42.0711C813.613 41.4044 813.473 40.6578 813.473 39.8311C813.473 38.9778 813.606 38.2111 813.873 37.5311C814.139 36.8378 814.519 36.2511 815.013 35.7711C815.506 35.2911 816.099 34.9244 816.793 34.6711C817.499 34.4044 818.293 34.2711 819.173 34.2711C820.039 34.2711 820.819 34.4044 821.513 34.6711C822.206 34.9244 822.793 35.2978 823.273 35.7911C823.753 36.2844 824.119 36.8911 824.373 37.6111C824.626 38.3178 824.753 39.1178 824.753 40.0111V40.3911H817.133ZM826.822 34.6511H830.442V35.9511C830.935 35.3511 831.435 34.9511 831.942 34.7511C832.449 34.5378 833.042 34.4311 833.722 34.4311C834.442 34.4311 835.055 34.5511 835.562 34.7911C836.082 35.0178 836.522 35.3444 836.882 35.7711C837.175 36.1178 837.375 36.5044 837.482 36.9311C837.589 37.3578 837.642 37.8444 837.642 38.3911V44.9111H834.022V39.7311C834.022 39.2244 833.982 38.8178 833.902 38.5111C833.835 38.1911 833.709 37.9378 833.522 37.7511C833.362 37.5911 833.182 37.4778 832.982 37.4111C832.782 37.3444 832.569 37.3111 832.342 37.3111C831.729 37.3111 831.255 37.4978 830.922 37.8711C830.602 38.2311 830.442 38.7511 830.442 39.4311V44.9111H826.822V34.6511ZM847.843 37.9711C847.217 37.5444 846.583 37.3311 845.943 37.3311C845.597 37.3311 845.27 37.3911 844.963 37.5111C844.67 37.6311 844.41 37.8044 844.183 38.0311C843.957 38.2444 843.777 38.5044 843.643 38.8111C843.523 39.1044 843.463 39.4378 843.463 39.8111C843.463 40.1711 843.523 40.5044 843.643 40.8111C843.777 41.1044 843.95 41.3644 844.163 41.5911C844.39 41.8044 844.657 41.9711 844.963 42.0911C845.27 42.2111 845.597 42.2711 845.943 42.2711C846.623 42.2711 847.257 42.0378 847.843 41.5711V44.6511C846.95 45.0378 846.103 45.2311 845.303 45.2311C844.557 45.2311 843.843 45.1044 843.163 44.8511C842.497 44.5978 841.903 44.2378 841.383 43.7711C840.877 43.2911 840.47 42.7244 840.163 42.0711C839.857 41.4044 839.703 40.6644 839.703 39.8511C839.703 39.0378 839.85 38.2978 840.143 37.6311C840.437 36.9511 840.837 36.3711 841.343 35.8911C841.85 35.3978 842.45 35.0178 843.143 34.7511C843.85 34.4711 844.603 34.3311 845.403 34.3311C846.283 34.3311 847.097 34.5178 847.843 34.8911V37.9711ZM857.408 38.2911C857.288 37.7844 857.041 37.3778 856.668 37.0711C856.295 36.7644 855.841 36.6111 855.308 36.6111C854.748 36.6111 854.288 36.7578 853.928 37.0511C853.581 37.3444 853.361 37.7578 853.268 38.2911H857.408ZM853.168 40.3911C853.168 41.9511 853.901 42.7311 855.368 42.7311C856.155 42.7311 856.748 42.4111 857.148 41.7711H860.648C859.941 44.1178 858.175 45.2911 855.348 45.2911C854.481 45.2911 853.688 45.1644 852.968 44.9111C852.248 44.6444 851.628 44.2711 851.108 43.7911C850.601 43.3111 850.208 42.7378 849.928 42.0711C849.648 41.4044 849.508 40.6578 849.508 39.8311C849.508 38.9778 849.641 38.2111 849.908 37.5311C850.175 36.8378 850.555 36.2511 851.048 35.7711C851.541 35.2911 852.135 34.9244 852.828 34.6711C853.535 34.4044 854.328 34.2711 855.208 34.2711C856.075 34.2711 856.855 34.4044 857.548 34.6711C858.241 34.9244 858.828 35.2978 859.308 35.7911C859.788 36.2844 860.155 36.8911 860.408 37.6111C860.661 38.3178 860.788 39.1178 860.788 40.0111V40.3911H853.168ZM869.657 37.2911C868.991 36.9444 868.337 36.7711 867.697 36.7711C867.364 36.7711 867.091 36.8378 866.877 36.9711C866.677 37.1044 866.577 37.2844 866.577 37.5111C866.577 37.6311 866.591 37.7311 866.617 37.8111C866.657 37.8778 866.731 37.9444 866.837 38.0111C866.957 38.0778 867.124 38.1378 867.337 38.1911C867.564 38.2444 867.857 38.3111 868.217 38.3911C869.217 38.5911 869.964 38.9511 870.457 39.4711C870.951 39.9778 871.197 40.6311 871.197 41.4311C871.197 42.0311 871.077 42.5711 870.837 43.0511C870.597 43.5311 870.264 43.9378 869.837 44.2711C869.411 44.5911 868.897 44.8378 868.297 45.0111C867.697 45.1978 867.037 45.2911 866.317 45.2911C864.931 45.2911 863.564 44.8978 862.217 44.1111L863.537 41.5511C864.551 42.2444 865.511 42.5911 866.417 42.5911C866.751 42.5911 867.024 42.5178 867.237 42.3711C867.451 42.2244 867.557 42.0378 867.557 41.8111C867.557 41.6778 867.537 41.5711 867.497 41.4911C867.471 41.3978 867.404 41.3178 867.297 41.2511C867.191 41.1711 867.031 41.1044 866.817 41.0511C866.617 40.9844 866.351 40.9178 866.017 40.8511C864.897 40.6244 864.111 40.2911 863.657 39.8511C863.217 39.3978 862.997 38.7778 862.997 37.9911C862.997 37.4178 863.104 36.9044 863.317 36.4511C863.531 35.9844 863.837 35.5911 864.237 35.2711C864.637 34.9511 865.117 34.7044 865.677 34.5311C866.251 34.3578 866.884 34.2711 867.577 34.2711C868.711 34.2711 869.811 34.4911 870.877 34.9311L869.657 37.2911Z" fill="#555555"/>
<path fill-rule="evenodd" clip-rule="evenodd" d="M688.993 26.4574C688.984 26.1036 688.694 25.7978 688.282 25.7075L679.176 23.7118L679.174 23.7113L675.744 22.9596C675.338 22.8704 674.909 23.013 674.688 23.3105C673.314 25.1621 672.234 27.2221 671.564 29.2678C670.446 32.682 670.635 35.611 672.113 37.7382C672.968 38.9689 674.223 39.8721 675.773 40.3866L672.262 51.1051L667.199 49.9954C666.689 49.8837 666.166 50.1365 666.032 50.5604C665.897 50.9842 666.202 51.4184 666.712 51.5303L672.683 52.8393L678.67 54.1513C678.752 54.1692 678.833 54.1778 678.914 54.1778C679.337 54.1778 679.724 53.9423 679.837 53.5863C679.971 53.1625 679.667 52.7283 679.157 52.6165L674.109 51.51L677.619 40.7937C677.963 40.8333 678.308 40.8537 678.65 40.8537C682.908 40.8537 686.425 37.8787 688.057 32.8957C688.727 30.8495 689.051 28.6231 688.993 26.4574ZM686.214 32.4787C684.822 36.7289 681.994 39.2664 678.649 39.2664C678.162 39.2664 677.666 39.2118 677.175 39.1041C675.703 38.7814 674.525 38.0347 673.767 36.9445C672.869 35.6512 672.567 33.9451 672.864 31.9356C674.139 32.1079 675.343 32.1748 676.484 32.1748C678.362 32.1748 680.073 31.9987 681.663 31.8351H681.663H681.663C683.458 31.6505 685.05 31.4874 686.466 31.6345C686.389 31.919 686.305 32.2008 686.214 32.4787ZM681.429 30.2598C683.319 30.0654 685.121 29.8812 686.814 30.0727C686.988 29.0874 687.082 28.0837 687.09 27.0879L679.368 25.3955C679.099 25.8002 678.797 26.3112 678.488 26.8872C678.329 27.1826 677.98 27.358 677.615 27.358C677.485 27.358 677.353 27.3358 677.227 27.289C676.745 27.1105 676.529 26.6413 676.743 26.241C676.941 25.8725 677.194 25.4199 677.47 24.9794L675.952 24.6468C674.845 26.2365 673.97 27.9669 673.407 29.6848C673.331 29.9176 673.262 30.147 673.199 30.3739C676.302 30.7871 679.012 30.5085 681.429 30.2598Z" fill="#555555"/>
<path d="M707.321 52.7093C707.321 52.7094 707.32 52.7094 707.32 52.7095L701.386 54.0042C701.945 53.8822 707.322 52.7092 707.321 52.7093Z" fill="#555555"/>
<path d="M701.429 54.0041C701.371 54.0167 701.339 54.0237 701.339 54.0237L701.429 54.0041Z" fill="#555555"/>
<path fill-rule="evenodd" clip-rule="evenodd" d="M713.968 50.4423C713.834 50.0207 713.311 49.7693 712.802 49.8802L707.742 50.9842L704.234 40.3213C705.783 39.8094 707.037 38.9109 707.891 37.6866C709.367 35.5705 709.557 32.6567 708.44 29.2603C707.77 27.2252 706.69 25.176 705.318 23.334C705.097 23.038 704.668 22.8961 704.262 22.985L691.733 25.7186C691.322 25.8084 691.032 26.1126 691.022 26.4646C690.97 28.4033 691.228 30.3902 691.768 32.2518C691.774 32.2779 691.781 32.3038 691.79 32.3292C691.844 32.5104 691.899 32.6909 691.958 32.8695C693.589 37.8262 697.103 40.7858 701.359 40.7861H701.36C701.701 40.7861 702.045 40.7658 702.389 40.7264L705.897 51.387L700.852 52.4877C700.342 52.5989 700.038 53.0309 700.173 53.4526C700.286 53.8067 700.672 54.0409 701.095 54.0409C701.175 54.0409 701.257 54.0324 701.339 54.0146L707.32 52.7095H707.32L713.289 51.4072C713.799 51.2959 714.103 50.8639 713.968 50.4423ZM692.925 27.0916L704.054 24.6633C705.161 26.2447 706.036 27.9661 706.598 29.6752C706.761 30.1708 706.893 30.6528 706.995 31.1206C706.414 31.073 705.823 31.0656 705.22 31.0855C705.118 30.5075 704.967 29.905 704.838 29.4377C704.722 29.0125 704.21 28.746 703.696 28.8428C703.182 28.9394 702.86 29.3624 702.977 29.7877C703.122 30.3145 703.236 30.8 703.313 31.2159C702.881 31.2567 702.444 31.3026 702.003 31.3492C699.525 31.6108 696.736 31.9049 693.497 31.4271C693.131 30.0211 692.936 28.5479 692.925 27.0916ZM701.359 39.2069H701.36C701.846 39.2069 702.342 39.1527 702.833 39.0454C704.303 38.7245 705.481 37.9815 706.238 36.897C707.01 35.7905 707.341 34.3799 707.23 32.7349C705.764 32.5443 704.115 32.718 702.244 32.9155L702.243 32.9156C700.657 33.083 698.95 33.2632 697.068 33.2632C696.103 33.2632 695.091 33.214 694.027 33.0933C695.484 36.9347 698.189 39.2067 701.359 39.2069Z" fill="#555555"/>
<path d="M690 18C689.448 18 689 18.3195 689 18.7137V20.5752C689 20.9694 689.448 21.2889 690 21.2889C690.552 21.2889 691 20.9694 691 20.5752V18.7137C691 18.3195 690.552 18 690 18Z" fill="#555555"/>
<path d="M686.876 21.7704L685.681 20.0261C685.428 19.6582 684.876 19.5349 684.446 19.7508C684.016 19.9665 683.872 20.4396 684.124 20.8075L685.319 22.5517C685.487 22.7968 685.789 22.9333 686.099 22.9333C686.254 22.9333 686.411 22.8991 686.554 22.8271C686.984 22.6113 687.128 22.1382 686.876 21.7704Z" fill="#555555"/>
<path d="M695.554 19.7507C695.124 19.5349 694.572 19.6582 694.32 20.0261L693.124 21.7704C692.872 22.1381 693.016 22.6113 693.446 22.8271C693.589 22.8991 693.746 22.9333 693.901 22.9333C694.211 22.9333 694.512 22.7968 694.681 22.5517L695.876 20.8074C696.128 20.4396 695.984 19.9665 695.554 19.7507Z" fill="#555555"/>
<path d="M705.954 26.8025C705.954 26.8014 705.953 26.7993 705.952 26.7975C705.789 26.369 705.235 26.1274 704.71 26.2574C704.182 26.3881 703.884 26.845 704.043 27.2779C704.045 27.2822 704.048 27.2902 704.049 27.295C704.184 27.6436 704.577 27.8667 705.001 27.8667C705.1 27.8667 705.201 27.8545 705.3 27.8288C705.826 27.6935 706.119 27.234 705.954 26.8025Z" fill="#555555"/>
<path d="M675 29.5111C675.552 29.5111 676 29.143 676 28.6889C676 28.2348 675.552 27.8667 675 27.8667C674.448 27.8667 674 28.2348 674 28.6889C674 29.143 674.448 29.5111 675 29.5111Z" fill="#555555"/>
<path d="M596.5 27.5V47.5" stroke="#43CFF3" stroke-linecap="square"/>
<path d="M463.5 35.9971H469.16V30.1771H473.08V45.2571H469.16V39.0371H463.5V45.2571H459.58V30.1771H463.5V35.9971ZM479.32 40.0771C479.32 40.4238 479.38 40.7438 479.5 41.0371C479.633 41.3171 479.8 41.5638 480 41.7771C480.213 41.9905 480.46 42.1571 480.74 42.2771C481.033 42.3971 481.34 42.4571 481.66 42.4571C481.98 42.4571 482.28 42.3971 482.56 42.2771C482.853 42.1571 483.1 41.9905 483.3 41.7771C483.513 41.5638 483.68 41.3171 483.8 41.0371C483.933 40.7438 484 40.4305 484 40.0971C484 39.7771 483.933 39.4771 483.8 39.1971C483.68 38.9038 483.513 38.6505 483.3 38.4371C483.1 38.2238 482.853 38.0571 482.56 37.9371C482.28 37.8171 481.98 37.7571 481.66 37.7571C481.34 37.7571 481.033 37.8171 480.74 37.9371C480.46 38.0571 480.213 38.2238 480 38.4371C479.8 38.6505 479.633 38.8971 479.5 39.1771C479.38 39.4571 479.32 39.7571 479.32 40.0771ZM475.5 40.0371C475.5 39.2771 475.653 38.5705 475.96 37.9171C476.267 37.2505 476.693 36.6771 477.24 36.1971C477.787 35.7038 478.433 35.3171 479.18 35.0371C479.94 34.7571 480.767 34.6171 481.66 34.6171C482.54 34.6171 483.353 34.7571 484.1 35.0371C484.86 35.3038 485.513 35.6838 486.06 36.1771C486.62 36.6571 487.053 37.2371 487.36 37.9171C487.667 38.5838 487.82 39.3238 487.82 40.1371C487.82 40.9505 487.66 41.6971 487.34 42.3771C487.033 43.0438 486.607 43.6238 486.06 44.1171C485.513 44.5971 484.853 44.9705 484.08 45.2371C483.32 45.5038 482.493 45.6371 481.6 45.6371C480.72 45.6371 479.907 45.5038 479.16 45.2371C478.413 44.9705 477.767 44.5905 477.22 44.0971C476.687 43.6038 476.267 43.0171 475.96 42.3371C475.653 41.6438 475.5 40.8771 475.5 40.0371ZM494.003 38.0171V45.2571H490.383V38.0171H489.183V34.9971H490.383V31.9171H494.003V34.9971H496.063V38.0171H494.003ZM505.119 38.6371C504.999 38.1305 504.752 37.7238 504.379 37.4171C504.006 37.1105 503.552 36.9571 503.019 36.9571C502.459 36.9571 501.999 37.1038 501.639 37.3971C501.292 37.6905 501.072 38.1038 500.979 38.6371H505.119ZM500.879 40.7371C500.879 42.2971 501.612 43.0771 503.079 43.0771C503.866 43.0771 504.459 42.7571 504.859 42.1171H508.359C507.652 44.4638 505.886 45.6371 503.059 45.6371C502.192 45.6371 501.399 45.5105 500.679 45.2571C499.959 44.9905 499.339 44.6171 498.819 44.1371C498.312 43.6571 497.919 43.0838 497.639 42.4171C497.359 41.7505 497.219 41.0038 497.219 40.1771C497.219 39.3238 497.352 38.5571 497.619 37.8771C497.886 37.1838 498.266 36.5971 498.759 36.1171C499.252 35.6371 499.846 35.2705 500.539 35.0171C501.246 34.7505 502.039 34.6171 502.919 34.6171C503.786 34.6171 504.566 34.7505 505.259 35.0171C505.952 35.2705 506.539 35.6438 507.019 36.1371C507.499 36.6305 507.866 37.2371 508.119 37.9571C508.372 38.6638 508.499 39.4638 508.499 40.3571V40.7371H500.879ZM514.188 28.6571V45.2571H510.568V28.6571H514.188ZM523.462 37.6371C522.795 37.2905 522.142 37.1171 521.502 37.1171C521.169 37.1171 520.895 37.1838 520.682 37.3171C520.482 37.4505 520.382 37.6305 520.382 37.8571C520.382 37.9771 520.395 38.0771 520.422 38.1571C520.462 38.2238 520.535 38.2905 520.642 38.3571C520.762 38.4238 520.929 38.4838 521.142 38.5371C521.369 38.5905 521.662 38.6571 522.022 38.7371C523.022 38.9371 523.769 39.2971 524.262 39.8171C524.755 40.3238 525.002 40.9771 525.002 41.7771C525.002 42.3771 524.882 42.9171 524.642 43.3971C524.402 43.8771 524.069 44.2838 523.642 44.6171C523.215 44.9371 522.702 45.1838 522.102 45.3571C521.502 45.5438 520.842 45.6371 520.122 45.6371C518.735 45.6371 517.369 45.2438 516.022 44.4571L517.342 41.8971C518.355 42.5905 519.315 42.9371 520.222 42.9371C520.555 42.9371 520.829 42.8638 521.042 42.7171C521.255 42.5705 521.362 42.3838 521.362 42.1571C521.362 42.0238 521.342 41.9171 521.302 41.8371C521.275 41.7438 521.209 41.6638 521.102 41.5971C520.995 41.5171 520.835 41.4505 520.622 41.3971C520.422 41.3305 520.155 41.2638 519.822 41.1971C518.702 40.9705 517.915 40.6371 517.462 40.1971C517.022 39.7438 516.802 39.1238 516.802 38.3371C516.802 37.7638 516.909 37.2505 517.122 36.7971C517.335 36.3305 517.642 35.9371 518.042 35.6171C518.442 35.2971 518.922 35.0505 519.482 34.8771C520.055 34.7038 520.689 34.6171 521.382 34.6171C522.515 34.6171 523.615 34.8371 524.682 35.2771L523.462 37.6371Z" fill="#555555"/>
<path fill-rule="evenodd" clip-rule="evenodd" d="M425.471 26.4999V36.5595C426.901 36.7406 428 37.7714 428 39.0121V45.2386C428 45.6734 427.577 46.0259 427.055 46.0259H426.042V49.9097C426.042 50.3444 425.619 50.6969 425.097 50.6969H423.391V52.2127C423.391 52.6475 422.968 53 422.446 53C421.924 53 421.501 52.6475 421.501 52.2127V50.6969H385.499V52.2127C385.499 52.6475 385.076 53 384.554 53C384.032 53 383.609 52.6475 383.609 52.2127V50.6969H381.903C381.381 50.6969 380.958 50.3444 380.958 49.9097V46.0259H379.945C379.423 46.0259 379 45.6734 379 45.2386V39.0121C379 37.7714 380.099 36.7407 381.529 36.5596V26.4999C381.529 25.1215 382.875 24 384.53 24H422.47C424.125 24 425.471 25.1215 425.471 26.4999ZM384.53 25.5745C383.917 25.5745 383.419 25.9897 383.419 26.4999V36.5312H386.737C386.077 35.9391 385.405 35.3164 384.71 34.6502C384.4 34.3539 384.4 33.913 384.71 33.6168C387.444 30.9995 389.733 29.0926 392.875 26.8153C393.231 26.5575 393.761 26.5575 394.116 26.8153C397.259 29.0926 399.548 30.9995 402.282 33.6168C402.592 33.913 402.592 34.3539 402.282 34.6502C401.587 35.3164 400.915 35.9391 400.254 36.5312H406.745C406.085 35.9392 405.413 35.3165 404.717 34.6502C404.408 34.3539 404.408 33.913 404.717 33.6168C407.452 30.9992 409.741 29.0923 412.883 26.8153C413.239 26.5575 413.768 26.5575 414.124 26.8153C417.266 29.0922 419.555 30.9991 422.29 33.6168C422.599 33.913 422.599 34.3539 422.29 34.6502C421.594 35.3164 420.922 35.9391 420.262 36.5312H423.581V26.4999C423.581 25.9897 423.082 25.5745 422.47 25.5745H384.53ZM409.353 36.5312C408.483 35.7876 407.605 34.9975 406.688 34.1336C408.947 32.0041 410.947 30.3378 413.503 28.4563C416.059 30.3377 418.06 32.0041 420.32 34.1336C419.402 34.9975 418.524 35.7876 417.654 36.5312H409.353ZM386.68 34.1336C387.597 34.9975 388.476 35.7875 389.346 36.5312H397.647C398.516 35.7875 399.395 34.9975 400.312 34.1336C398.053 32.0045 396.052 30.3379 393.496 28.4563C390.94 30.3379 388.939 32.0045 386.68 34.1336ZM424.152 49.1224H382.848V46.0259H424.152V49.1224ZM380.89 44.4513H426.11V39.0121C426.11 38.5124 425.621 38.1057 425.021 38.1057H381.979C381.379 38.1057 380.89 38.5124 380.89 39.0121V44.4513Z" fill="#555555"/>
<path d="M309.5 27.5V47.5" stroke="#43CFF3" stroke-linecap="square"/>
<g clip-path="url(#clip0)">
<path fill-rule="evenodd" clip-rule="evenodd" d="M79.4519 28.4214C82.8373 27.0974 87.7881 25.966 92.1452 28.0958C94.0438 29.0236 94.3948 30.0929 94.3549 30.8262C94.2779 32.2401 92.7259 33.5197 89.6102 34.7384L53.5362 48.8468C51.1812 49.7678 47.4149 50.5115 43.941 50.7417C43.1886 50.7915 42.4876 50.8164 41.8386 50.8164C38.674 50.8165 36.7447 50.2248 36.0919 49.0509C35.5921 48.152 36.1426 47.2961 36.7501 46.6883L31 40.6995L37.3627 38.2112L46.8658 41.2446L55.9999 37.6055L41.6675 25.4191L52.0038 25.0466L69.3602 32.3682L79.4519 28.4214ZM52.4338 46.8641L88.5076 32.7555C91.6703 31.5188 91.7487 30.7343 91.7489 30.7264C91.7552 30.612 91.516 30.3203 90.8317 29.9859L90.8316 29.9858C88.1157 28.6585 84.6579 28.799 80.554 30.404L69.3169 34.7986L51.4376 27.2566L47.6527 27.393L60.4339 38.2607L46.9785 43.6215L37.4652 40.5847L35.1195 41.5022L40.2982 46.8958L39.3613 47.5874C38.9618 47.8823 38.7453 48.0915 38.6294 48.2246C39.1925 48.4783 40.882 48.777 44.0418 48.5391C47.1333 48.3063 50.4274 47.6488 52.4338 46.8641Z" fill="#555555"/>
<path d="M123.5 42.2607H124.4C125.08 42.2607 125.687 42.154 126.22 41.9407C126.753 41.7273 127.2 41.434 127.56 41.0607C127.933 40.6873 128.213 40.2473 128.4 39.7407C128.6 39.2207 128.7 38.654 128.7 38.0407C128.7 37.4407 128.6 36.8807 128.4 36.3607C128.2 35.8407 127.913 35.394 127.54 35.0207C127.18 34.6473 126.733 34.354 126.2 34.1407C125.667 33.9273 125.067 33.8207 124.4 33.8207H123.5V42.2607ZM119.58 30.5007H125.38C126.407 30.5007 127.367 30.7073 128.26 31.1207C129.167 31.534 129.953 32.0873 130.62 32.7807C131.3 33.4607 131.833 34.2607 132.22 35.1807C132.607 36.0873 132.8 37.0407 132.8 38.0407C132.8 39.0273 132.607 39.9807 132.22 40.9007C131.847 41.8073 131.32 42.6073 130.64 43.3007C129.973 43.994 129.187 44.5473 128.28 44.9607C127.387 45.374 126.42 45.5807 125.38 45.5807H119.58V30.5007ZM142.463 38.9607C142.343 38.454 142.096 38.0473 141.723 37.7407C141.349 37.434 140.896 37.2807 140.363 37.2807C139.803 37.2807 139.343 37.4273 138.983 37.7207C138.636 38.014 138.416 38.4273 138.323 38.9607H142.463ZM138.223 41.0607C138.223 42.6207 138.956 43.4007 140.423 43.4007C141.209 43.4007 141.803 43.0807 142.203 42.4407H145.703C144.996 44.7873 143.229 45.9607 140.403 45.9607C139.536 45.9607 138.743 45.834 138.023 45.5807C137.303 45.314 136.683 44.9407 136.163 44.4607C135.656 43.9807 135.263 43.4073 134.983 42.7407C134.703 42.074 134.563 41.3273 134.563 40.5007C134.563 39.6473 134.696 38.8807 134.963 38.2007C135.229 37.5073 135.609 36.9207 136.103 36.4407C136.596 35.9607 137.189 35.594 137.883 35.3407C138.589 35.074 139.383 34.9407 140.263 34.9407C141.129 34.9407 141.909 35.074 142.603 35.3407C143.296 35.594 143.883 35.9673 144.363 36.4607C144.843 36.954 145.209 37.5607 145.463 38.2807C145.716 38.9873 145.843 39.7873 145.843 40.6807V41.0607H138.223ZM156.092 40.4807C156.092 40.1607 156.032 39.8607 155.912 39.5807C155.805 39.2873 155.645 39.034 155.432 38.8207C155.219 38.6073 154.965 38.4407 154.672 38.3207C154.392 38.1873 154.085 38.1207 153.752 38.1207C153.432 38.1207 153.132 38.1807 152.852 38.3007C152.572 38.4207 152.325 38.5873 152.112 38.8007C151.912 39.014 151.745 39.2673 151.612 39.5607C151.492 39.8407 151.432 40.1407 151.432 40.4607C151.432 40.7807 151.492 41.0807 151.612 41.3607C151.732 41.6407 151.899 41.8873 152.112 42.1007C152.325 42.3007 152.572 42.4673 152.852 42.6007C153.145 42.7207 153.452 42.7807 153.772 42.7807C154.092 42.7807 154.392 42.7207 154.672 42.6007C154.952 42.4807 155.192 42.314 155.392 42.1007C155.605 41.8873 155.772 41.6407 155.892 41.3607C156.025 41.0807 156.092 40.7873 156.092 40.4807ZM151.532 50.7007H147.912V35.3207H151.532V36.4607C152.305 35.4873 153.359 35.0007 154.692 35.0007C155.425 35.0007 156.105 35.1473 156.732 35.4407C157.372 35.7207 157.925 36.1073 158.392 36.6007C158.859 37.094 159.219 37.674 159.472 38.3407C159.739 39.0073 159.872 39.7207 159.872 40.4807C159.872 41.2407 159.739 41.9473 159.472 42.6007C159.219 43.254 158.859 43.8273 158.392 44.3207C157.939 44.814 157.399 45.2007 156.772 45.4807C156.145 45.7607 155.465 45.9007 154.732 45.9007C153.452 45.9007 152.385 45.4607 151.532 44.5807V50.7007ZM165.295 40.4207C165.295 40.754 165.355 41.0673 165.475 41.3607C165.595 41.6407 165.755 41.8873 165.955 42.1007C166.169 42.314 166.415 42.4807 166.695 42.6007C166.989 42.7207 167.302 42.7807 167.635 42.7807C167.955 42.7807 168.255 42.7207 168.535 42.6007C168.829 42.4807 169.075 42.314 169.275 42.1007C169.489 41.8873 169.655 41.6407 169.775 41.3607C169.909 41.0807 169.975 40.7807 169.975 40.4607C169.975 40.1407 169.909 39.8407 169.775 39.5607C169.655 39.2673 169.489 39.014 169.275 38.8007C169.075 38.5873 168.829 38.4207 168.535 38.3007C168.255 38.1807 167.955 38.1207 167.635 38.1207C167.302 38.1207 166.989 38.1807 166.695 38.3007C166.415 38.4207 166.169 38.5873 165.955 38.8007C165.755 39.014 165.595 39.2607 165.475 39.5407C165.355 39.8073 165.295 40.1007 165.295 40.4207ZM169.855 35.3207H173.495V45.5807H169.855V44.4407C169.082 45.414 168.035 45.9007 166.715 45.9007C165.969 45.9007 165.282 45.7673 164.655 45.5007C164.029 45.2207 163.482 44.834 163.015 44.3407C162.549 43.8473 162.182 43.2673 161.915 42.6007C161.662 41.934 161.535 41.2073 161.535 40.4207C161.535 39.6873 161.662 38.994 161.915 38.3407C162.169 37.674 162.522 37.094 162.975 36.6007C163.429 36.1073 163.969 35.7207 164.595 35.4407C165.222 35.1473 165.915 35.0007 166.675 35.0007C167.955 35.0007 169.015 35.4473 169.855 36.3407V35.3207ZM175.959 35.3207H179.579V37.0007C179.965 36.3873 180.439 35.9207 180.999 35.6007C181.559 35.2673 182.212 35.1007 182.959 35.1007C183.052 35.1007 183.152 35.1007 183.259 35.1007C183.379 35.1007 183.512 35.114 183.659 35.1407V38.6007C183.179 38.3607 182.659 38.2407 182.099 38.2407C181.259 38.2407 180.625 38.494 180.199 39.0007C179.785 39.494 179.579 40.2207 179.579 41.1807V45.5807H175.959V35.3207ZM189.686 38.3407V45.5807H186.066V38.3407H184.866V35.3207H186.066V32.2407H189.686V35.3207H191.746V38.3407H189.686ZM196.727 35.3207V41.1007C196.727 42.3673 197.341 43.0007 198.567 43.0007C199.794 43.0007 200.407 42.3673 200.407 41.1007V35.3207H204.027V41.8007C204.027 43.1873 203.567 44.2273 202.647 44.9207C201.741 45.614 200.381 45.9607 198.567 45.9607C196.754 45.9607 195.387 45.614 194.467 44.9207C193.561 44.2273 193.107 43.1873 193.107 41.8007V35.3207H196.727ZM206.486 35.3207H210.106V37.0007C210.493 36.3873 210.966 35.9207 211.526 35.6007C212.086 35.2673 212.739 35.1007 213.486 35.1007C213.579 35.1007 213.679 35.1007 213.786 35.1007C213.906 35.1007 214.039 35.114 214.186 35.1407V38.6007C213.706 38.3607 213.186 38.2407 212.626 38.2407C211.786 38.2407 211.153 38.494 210.726 39.0007C210.313 39.494 210.106 40.2207 210.106 41.1807V45.5807H206.486V35.3207ZM223.42 38.9607C223.3 38.454 223.053 38.0473 222.68 37.7407C222.306 37.434 221.853 37.2807 221.32 37.2807C220.76 37.2807 220.3 37.4273 219.94 37.7207C219.593 38.014 219.373 38.4273 219.28 38.9607H223.42ZM219.18 41.0607C219.18 42.6207 219.913 43.4007 221.38 43.4007C222.166 43.4007 222.76 43.0807 223.16 42.4407H226.66C225.953 44.7873 224.186 45.9607 221.36 45.9607C220.493 45.9607 219.7 45.834 218.98 45.5807C218.26 45.314 217.64 44.9407 217.12 44.4607C216.613 43.9807 216.22 43.4073 215.94 42.7407C215.66 42.074 215.52 41.3273 215.52 40.5007C215.52 39.6473 215.653 38.8807 215.92 38.2007C216.186 37.5073 216.566 36.9207 217.06 36.4407C217.553 35.9607 218.146 35.594 218.84 35.3407C219.546 35.074 220.34 34.9407 221.22 34.9407C222.086 34.9407 222.866 35.074 223.56 35.3407C224.253 35.594 224.84 35.9673 225.32 36.4607C225.8 36.954 226.166 37.5607 226.42 38.2807C226.673 38.9873 226.8 39.7873 226.8 40.6807V41.0607H219.18ZM235.669 37.9607C235.002 37.614 234.349 37.4407 233.709 37.4407C233.376 37.4407 233.102 37.5073 232.889 37.6407C232.689 37.774 232.589 37.954 232.589 38.1807C232.589 38.3007 232.602 38.4007 232.629 38.4807C232.669 38.5473 232.742 38.614 232.849 38.6807C232.969 38.7473 233.136 38.8073 233.349 38.8607C233.576 38.914 233.869 38.9807 234.229 39.0607C235.229 39.2607 235.976 39.6207 236.469 40.1407C236.962 40.6473 237.209 41.3007 237.209 42.1007C237.209 42.7007 237.089 43.2407 236.849 43.7207C236.609 44.2007 236.276 44.6073 235.849 44.9407C235.422 45.2607 234.909 45.5073 234.309 45.6807C233.709 45.8673 233.049 45.9607 232.329 45.9607C230.942 45.9607 229.576 45.5673 228.229 44.7807L229.549 42.2207C230.562 42.914 231.522 43.2607 232.429 43.2607C232.762 43.2607 233.036 43.1873 233.249 43.0407C233.462 42.894 233.569 42.7073 233.569 42.4807C233.569 42.3473 233.549 42.2407 233.509 42.1607C233.482 42.0673 233.416 41.9873 233.309 41.9207C233.202 41.8407 233.042 41.774 232.829 41.7207C232.629 41.654 232.362 41.5873 232.029 41.5207C230.909 41.294 230.122 40.9607 229.669 40.5207C229.229 40.0673 229.009 39.4473 229.009 38.6607C229.009 38.0873 229.116 37.574 229.329 37.1207C229.542 36.654 229.849 36.2607 230.249 35.9407C230.649 35.6207 231.129 35.374 231.689 35.2007C232.262 35.0273 232.896 34.9407 233.589 34.9407C234.722 34.9407 235.822 35.1607 236.889 35.6007L235.669 37.9607Z" fill="#555555"/>
</g>
<defs>
<clipPath id="clip0">
<rect x="31" y="24" width="207" height="27" fill="white"/>
</clipPath>
</defs>
</svg>
