<svg width="207" height="27" viewBox="0 0 207 27" fill="none" xmlns="http://www.w3.org/2000/svg">
<g clip-path="url(#clip0)">
<path id="departures" fill-rule="evenodd" clip-rule="evenodd" d="M48.4519 4.42136C51.8373 3.09736 56.7881 1.96598 61.1452 4.09583C63.0438 5.02363 63.3948 6.09288 63.3549 6.8262C63.2779 8.24011 61.7259 9.5197 58.6102 10.7384L22.5362 24.8468C20.1812 25.7678 16.4149 26.5115 12.941 26.7417C12.1886 26.7915 11.4876 26.8164 10.8386 26.8164C7.67397 26.8165 5.74465 26.2248 5.0919 25.0509C4.59212 24.152 5.14263 23.2961 5.75013 22.6883L0 16.6995L6.36272 14.2112L15.8658 17.2446L24.9999 13.6055L10.6675 1.41906L21.0038 1.0466L38.3602 8.3682L48.4519 4.42136ZM21.4338 22.8641L57.5076 8.75553C60.6703 7.51882 60.7487 6.73431 60.7489 6.72644C60.7552 6.61202 60.516 6.32029 59.8317 5.9859L59.8316 5.98579C57.1157 4.65851 53.6579 4.79896 49.554 6.40397L38.3169 10.7986L20.4376 3.25662L16.6527 3.39303L29.4339 14.2607L15.9785 19.6215L6.46523 16.5847L4.11948 17.5022L9.29824 22.8958L8.36129 23.5874C7.96181 23.8823 7.74531 24.0915 7.62937 24.2246C8.19253 24.4783 9.882 24.777 13.0418 24.5391C16.1333 24.3063 19.4274 23.6488 21.4338 22.8641Z" fill="#43CFF3"/>
<path d="M92.5 18.2607H93.4C94.08 18.2607 94.6867 18.154 95.22 17.9407C95.7533 17.7273 96.2 17.434 96.56 17.0607C96.9333 16.6873 97.2133 16.2473 97.4 15.7407C97.6 15.2207 97.7 14.654 97.7 14.0407C97.7 13.4407 97.6 12.8807 97.4 12.3607C97.2 11.8407 96.9133 11.394 96.54 11.0207C96.18 10.6473 95.7333 10.354 95.2 10.1407C94.6667 9.92732 94.0667 9.82066 93.4 9.82066H92.5V18.2607ZM88.58 6.50066H94.38C95.4067 6.50066 96.3667 6.70732 97.26 7.12066C98.1667 7.53399 98.9533 8.08732 99.62 8.78066C100.3 9.46066 100.833 10.2607 101.22 11.1807C101.607 12.0873 101.8 13.0407 101.8 14.0407C101.8 15.0273 101.607 15.9807 101.22 16.9007C100.847 17.8073 100.32 18.6073 99.64 19.3007C98.9733 19.994 98.1867 20.5473 97.28 20.9607C96.3867 21.374 95.42 21.5807 94.38 21.5807H88.58V6.50066ZM111.463 14.9607C111.343 14.454 111.096 14.0473 110.723 13.7407C110.349 13.434 109.896 13.2807 109.363 13.2807C108.803 13.2807 108.343 13.4273 107.983 13.7207C107.636 14.014 107.416 14.4273 107.323 14.9607H111.463ZM107.223 17.0607C107.223 18.6207 107.956 19.4007 109.423 19.4007C110.209 19.4007 110.803 19.0807 111.203 18.4407H114.703C113.996 20.7873 112.229 21.9607 109.403 21.9607C108.536 21.9607 107.743 21.834 107.023 21.5807C106.303 21.314 105.683 20.9407 105.163 20.4607C104.656 19.9807 104.263 19.4073 103.983 18.7407C103.703 18.074 103.563 17.3273 103.563 16.5007C103.563 15.6473 103.696 14.8807 103.963 14.2007C104.229 13.5073 104.609 12.9207 105.103 12.4407C105.596 11.9607 106.189 11.594 106.883 11.3407C107.589 11.074 108.383 10.9407 109.263 10.9407C110.129 10.9407 110.909 11.074 111.603 11.3407C112.296 11.594 112.883 11.9673 113.363 12.4607C113.843 12.954 114.209 13.5607 114.463 14.2807C114.716 14.9873 114.843 15.7873 114.843 16.6807V17.0607H107.223ZM125.092 16.4807C125.092 16.1607 125.032 15.8607 124.912 15.5807C124.805 15.2873 124.645 15.034 124.432 14.8207C124.219 14.6073 123.965 14.4407 123.672 14.3207C123.392 14.1873 123.085 14.1207 122.752 14.1207C122.432 14.1207 122.132 14.1807 121.852 14.3007C121.572 14.4207 121.325 14.5873 121.112 14.8007C120.912 15.014 120.745 15.2673 120.612 15.5607C120.492 15.8407 120.432 16.1407 120.432 16.4607C120.432 16.7807 120.492 17.0807 120.612 17.3607C120.732 17.6407 120.899 17.8873 121.112 18.1007C121.325 18.3007 121.572 18.4673 121.852 18.6007C122.145 18.7207 122.452 18.7807 122.772 18.7807C123.092 18.7807 123.392 18.7207 123.672 18.6007C123.952 18.4807 124.192 18.314 124.392 18.1007C124.605 17.8873 124.772 17.6407 124.892 17.3607C125.025 17.0807 125.092 16.7873 125.092 16.4807ZM120.532 26.7007H116.912V11.3207H120.532V12.4607C121.305 11.4873 122.359 11.0007 123.692 11.0007C124.425 11.0007 125.105 11.1473 125.732 11.4407C126.372 11.7207 126.925 12.1073 127.392 12.6007C127.859 13.094 128.219 13.674 128.472 14.3407C128.739 15.0073 128.872 15.7207 128.872 16.4807C128.872 17.2407 128.739 17.9473 128.472 18.6007C128.219 19.254 127.859 19.8273 127.392 20.3207C126.939 20.814 126.399 21.2007 125.772 21.4807C125.145 21.7607 124.465 21.9007 123.732 21.9007C122.452 21.9007 121.385 21.4607 120.532 20.5807V26.7007ZM134.295 16.4207C134.295 16.754 134.355 17.0673 134.475 17.3607C134.595 17.6407 134.755 17.8873 134.955 18.1007C135.169 18.314 135.415 18.4807 135.695 18.6007C135.989 18.7207 136.302 18.7807 136.635 18.7807C136.955 18.7807 137.255 18.7207 137.535 18.6007C137.829 18.4807 138.075 18.314 138.275 18.1007C138.489 17.8873 138.655 17.6407 138.775 17.3607C138.909 17.0807 138.975 16.7807 138.975 16.4607C138.975 16.1407 138.909 15.8407 138.775 15.5607C138.655 15.2673 138.489 15.014 138.275 14.8007C138.075 14.5873 137.829 14.4207 137.535 14.3007C137.255 14.1807 136.955 14.1207 136.635 14.1207C136.302 14.1207 135.989 14.1807 135.695 14.3007C135.415 14.4207 135.169 14.5873 134.955 14.8007C134.755 15.014 134.595 15.2607 134.475 15.5407C134.355 15.8073 134.295 16.1007 134.295 16.4207ZM138.855 11.3207H142.495V21.5807H138.855V20.4407C138.082 21.414 137.035 21.9007 135.715 21.9007C134.969 21.9007 134.282 21.7673 133.655 21.5007C133.029 21.2207 132.482 20.834 132.015 20.3407C131.549 19.8473 131.182 19.2673 130.915 18.6007C130.662 17.934 130.535 17.2073 130.535 16.4207C130.535 15.6873 130.662 14.994 130.915 14.3407C131.169 13.674 131.522 13.094 131.975 12.6007C132.429 12.1073 132.969 11.7207 133.595 11.4407C134.222 11.1473 134.915 11.0007 135.675 11.0007C136.955 11.0007 138.015 11.4473 138.855 12.3407V11.3207ZM144.959 11.3207H148.579V13.0007C148.965 12.3873 149.439 11.9207 149.999 11.6007C150.559 11.2673 151.212 11.1007 151.959 11.1007C152.052 11.1007 152.152 11.1007 152.259 11.1007C152.379 11.1007 152.512 11.114 152.659 11.1407V14.6007C152.179 14.3607 151.659 14.2407 151.099 14.2407C150.259 14.2407 149.625 14.494 149.199 15.0007C148.785 15.494 148.579 16.2207 148.579 17.1807V21.5807H144.959V11.3207ZM158.686 14.3407V21.5807H155.066V14.3407H153.866V11.3207H155.066V8.24066H158.686V11.3207H160.746V14.3407H158.686ZM165.727 11.3207V17.1007C165.727 18.3673 166.341 19.0007 167.567 19.0007C168.794 19.0007 169.407 18.3673 169.407 17.1007V11.3207H173.027V17.8007C173.027 19.1873 172.567 20.2273 171.647 20.9207C170.741 21.614 169.381 21.9607 167.567 21.9607C165.754 21.9607 164.387 21.614 163.467 20.9207C162.561 20.2273 162.107 19.1873 162.107 17.8007V11.3207H165.727ZM175.486 11.3207H179.106V13.0007C179.493 12.3873 179.966 11.9207 180.526 11.6007C181.086 11.2673 181.739 11.1007 182.486 11.1007C182.579 11.1007 182.679 11.1007 182.786 11.1007C182.906 11.1007 183.039 11.114 183.186 11.1407V14.6007C182.706 14.3607 182.186 14.2407 181.626 14.2407C180.786 14.2407 180.153 14.494 179.726 15.0007C179.313 15.494 179.106 16.2207 179.106 17.1807V21.5807H175.486V11.3207ZM192.42 14.9607C192.3 14.454 192.053 14.0473 191.68 13.7407C191.306 13.434 190.853 13.2807 190.32 13.2807C189.76 13.2807 189.3 13.4273 188.94 13.7207C188.593 14.014 188.373 14.4273 188.28 14.9607H192.42ZM188.18 17.0607C188.18 18.6207 188.913 19.4007 190.38 19.4007C191.166 19.4007 191.76 19.0807 192.16 18.4407H195.66C194.953 20.7873 193.186 21.9607 190.36 21.9607C189.493 21.9607 188.7 21.834 187.98 21.5807C187.26 21.314 186.64 20.9407 186.12 20.4607C185.613 19.9807 185.22 19.4073 184.94 18.7407C184.66 18.074 184.52 17.3273 184.52 16.5007C184.52 15.6473 184.653 14.8807 184.92 14.2007C185.186 13.5073 185.566 12.9207 186.06 12.4407C186.553 11.9607 187.146 11.594 187.84 11.3407C188.546 11.074 189.34 10.9407 190.22 10.9407C191.086 10.9407 191.866 11.074 192.56 11.3407C193.253 11.594 193.84 11.9673 194.32 12.4607C194.8 12.954 195.166 13.5607 195.42 14.2807C195.673 14.9873 195.8 15.7873 195.8 16.6807V17.0607H188.18ZM204.669 13.9607C204.002 13.614 203.349 13.4407 202.709 13.4407C202.376 13.4407 202.102 13.5073 201.889 13.6407C201.689 13.774 201.589 13.954 201.589 14.1807C201.589 14.3007 201.602 14.4007 201.629 14.4807C201.669 14.5473 201.742 14.614 201.849 14.6807C201.969 14.7473 202.136 14.8073 202.349 14.8607C202.576 14.914 202.869 14.9807 203.229 15.0607C204.229 15.2607 204.976 15.6207 205.469 16.1407C205.962 16.6473 206.209 17.3007 206.209 18.1007C206.209 18.7007 206.089 19.2407 205.849 19.7207C205.609 20.2007 205.276 20.6073 204.849 20.9407C204.422 21.2607 203.909 21.5073 203.309 21.6807C202.709 21.8673 202.049 21.9607 201.329 21.9607C199.942 21.9607 198.576 21.5673 197.229 20.7807L198.549 18.2207C199.562 18.914 200.522 19.2607 201.429 19.2607C201.762 19.2607 202.036 19.1873 202.249 19.0407C202.462 18.894 202.569 18.7073 202.569 18.4807C202.569 18.3473 202.549 18.2407 202.509 18.1607C202.482 18.0673 202.416 17.9873 202.309 17.9207C202.202 17.8407 202.042 17.774 201.829 17.7207C201.629 17.654 201.362 17.5873 201.029 17.5207C199.909 17.294 199.122 16.9607 198.669 16.5207C198.229 16.0673 198.009 15.4473 198.009 14.6607C198.009 14.0873 198.116 13.574 198.329 13.1207C198.542 12.654 198.849 12.2607 199.249 11.9407C199.649 11.6207 200.129 11.374 200.689 11.2007C201.262 11.0273 201.896 10.9407 202.589 10.9407C203.722 10.9407 204.822 11.1607 205.889 11.6007L204.669 13.9607Z" fill="#43CFF3"/>
</g>
<defs>
<clipPath id="clip0">
<rect width="207" height="27" fill="white"/>
</clipPath>
</defs>
</svg>
