<svg width="206" height="38" viewBox="0 0 206 38" fill="none" xmlns="http://www.w3.org/2000/svg">
<path class="experiences" d="M88.16 15.1511H83.5V17.6711H87.9V20.9911H83.5V23.5911H88.16V26.9111H79.58V11.8311H88.16V15.1511ZM94.5263 21.3511L90.3663 16.6511H95.0863L96.8463 18.7711L98.6463 16.6511H103.366L99.1063 21.3511L104.246 26.9111H99.4463L96.8263 23.8711L94.1863 26.9111H89.4062L94.5263 21.3511ZM113.67 21.8111C113.67 21.4911 113.61 21.1911 113.49 20.9111C113.383 20.6178 113.223 20.3644 113.01 20.1511C112.797 19.9378 112.543 19.7711 112.25 19.6511C111.97 19.5178 111.663 19.4511 111.33 19.4511C111.01 19.4511 110.71 19.5111 110.43 19.6311C110.15 19.7511 109.903 19.9178 109.69 20.1311C109.49 20.3444 109.323 20.5978 109.19 20.8911C109.07 21.1711 109.01 21.4711 109.01 21.7911C109.01 22.1111 109.07 22.4111 109.19 22.6911C109.31 22.9711 109.477 23.2178 109.69 23.4311C109.903 23.6311 110.15 23.7978 110.43 23.9311C110.723 24.0511 111.03 24.1111 111.35 24.1111C111.67 24.1111 111.97 24.0511 112.25 23.9311C112.53 23.8111 112.77 23.6444 112.97 23.4311C113.183 23.2178 113.35 22.9711 113.47 22.6911C113.603 22.4111 113.67 22.1178 113.67 21.8111ZM109.11 32.0311H105.49V16.6511H109.11V17.7911C109.883 16.8178 110.937 16.3311 112.27 16.3311C113.003 16.3311 113.683 16.4778 114.31 16.7711C114.95 17.0511 115.503 17.4378 115.97 17.9311C116.437 18.4244 116.797 19.0044 117.05 19.6711C117.317 20.3378 117.45 21.0511 117.45 21.8111C117.45 22.5711 117.317 23.2778 117.05 23.9311C116.797 24.5844 116.437 25.1578 115.97 25.6511C115.517 26.1444 114.977 26.5311 114.35 26.8111C113.723 27.0911 113.043 27.2311 112.31 27.2311C111.03 27.2311 109.963 26.7911 109.11 25.9111V32.0311ZM127.013 20.2911C126.893 19.7844 126.647 19.3778 126.273 19.0711C125.9 18.7644 125.447 18.6111 124.913 18.6111C124.353 18.6111 123.893 18.7578 123.533 19.0511C123.187 19.3444 122.967 19.7578 122.873 20.2911H127.013ZM122.773 22.3911C122.773 23.9511 123.507 24.7311 124.973 24.7311C125.76 24.7311 126.353 24.4111 126.753 23.7711H130.253C129.547 26.1178 127.78 27.2911 124.953 27.2911C124.087 27.2911 123.293 27.1644 122.573 26.9111C121.853 26.6444 121.233 26.2711 120.713 25.7911C120.207 25.3111 119.813 24.7378 119.533 24.0711C119.253 23.4044 119.113 22.6578 119.113 21.8311C119.113 20.9778 119.247 20.2111 119.513 19.5311C119.78 18.8378 120.16 18.2511 120.653 17.7711C121.147 17.2911 121.74 16.9244 122.433 16.6711C123.14 16.4044 123.933 16.2711 124.813 16.2711C125.68 16.2711 126.46 16.4044 127.153 16.6711C127.847 16.9244 128.433 17.2978 128.913 17.7911C129.393 18.2844 129.76 18.8911 130.013 19.6111C130.267 20.3178 130.393 21.1178 130.393 22.0111V22.3911H122.773ZM132.463 16.6511H136.083V18.3311C136.469 17.7178 136.943 17.2511 137.503 16.9311C138.063 16.5978 138.716 16.4311 139.463 16.4311C139.556 16.4311 139.656 16.4311 139.763 16.4311C139.883 16.4311 140.016 16.4444 140.163 16.4711V19.9311C139.683 19.6911 139.163 19.5711 138.603 19.5711C137.763 19.5711 137.129 19.8244 136.703 20.3311C136.289 20.8244 136.083 21.5511 136.083 22.5111V26.9111H132.463V16.6511ZM145.399 16.6511V26.9111H141.779V16.6511H145.399ZM141.539 12.7111C141.539 12.4311 141.592 12.1711 141.699 11.9311C141.806 11.6778 141.952 11.4578 142.139 11.2711C142.326 11.0844 142.539 10.9378 142.779 10.8311C143.032 10.7244 143.299 10.6711 143.579 10.6711C143.859 10.6711 144.119 10.7244 144.359 10.8311C144.612 10.9378 144.832 11.0844 145.019 11.2711C145.206 11.4578 145.352 11.6778 145.459 11.9311C145.566 12.1711 145.619 12.4311 145.619 12.7111C145.619 12.9911 145.566 13.2578 145.459 13.5111C145.352 13.7511 145.206 13.9644 145.019 14.1511C144.832 14.3378 144.612 14.4844 144.359 14.5911C144.119 14.6978 143.859 14.7511 143.579 14.7511C143.299 14.7511 143.032 14.6978 142.779 14.5911C142.539 14.4844 142.326 14.3378 142.139 14.1511C141.952 13.9644 141.806 13.7511 141.699 13.5111C141.592 13.2578 141.539 12.9911 141.539 12.7111ZM155.373 20.2911C155.253 19.7844 155.006 19.3778 154.633 19.0711C154.259 18.7644 153.806 18.6111 153.273 18.6111C152.713 18.6111 152.253 18.7578 151.893 19.0511C151.546 19.3444 151.326 19.7578 151.233 20.2911H155.373ZM151.133 22.3911C151.133 23.9511 151.866 24.7311 153.333 24.7311C154.119 24.7311 154.713 24.4111 155.113 23.7711H158.613C157.906 26.1178 156.139 27.2911 153.313 27.2911C152.446 27.2911 151.653 27.1644 150.933 26.9111C150.213 26.6444 149.593 26.2711 149.073 25.7911C148.566 25.3111 148.173 24.7378 147.893 24.0711C147.613 23.4044 147.473 22.6578 147.473 21.8311C147.473 20.9778 147.606 20.2111 147.873 19.5311C148.139 18.8378 148.519 18.2511 149.013 17.7711C149.506 17.2911 150.099 16.9244 150.793 16.6711C151.499 16.4044 152.293 16.2711 153.173 16.2711C154.039 16.2711 154.819 16.4044 155.513 16.6711C156.206 16.9244 156.793 17.2978 157.273 17.7911C157.753 18.2844 158.119 18.8911 158.373 19.6111C158.626 20.3178 158.753 21.1178 158.753 22.0111V22.3911H151.133ZM160.822 16.6511H164.442V17.9511C164.935 17.3511 165.435 16.9511 165.942 16.7511C166.449 16.5378 167.042 16.4311 167.722 16.4311C168.442 16.4311 169.055 16.5511 169.562 16.7911C170.082 17.0178 170.522 17.3444 170.882 17.7711C171.175 18.1178 171.375 18.5044 171.482 18.9311C171.589 19.3578 171.642 19.8444 171.642 20.3911V26.9111H168.022V21.7311C168.022 21.2244 167.982 20.8178 167.902 20.5111C167.835 20.1911 167.709 19.9378 167.522 19.7511C167.362 19.5911 167.182 19.4778 166.982 19.4111C166.782 19.3444 166.569 19.3111 166.342 19.3111C165.729 19.3111 165.255 19.4978 164.922 19.8711C164.602 20.2311 164.442 20.7511 164.442 21.4311V26.9111H160.822V16.6511ZM181.843 19.9711C181.217 19.5444 180.583 19.3311 179.943 19.3311C179.597 19.3311 179.27 19.3911 178.963 19.5111C178.67 19.6311 178.41 19.8044 178.183 20.0311C177.957 20.2444 177.777 20.5044 177.643 20.8111C177.523 21.1044 177.463 21.4378 177.463 21.8111C177.463 22.1711 177.523 22.5044 177.643 22.8111C177.777 23.1044 177.95 23.3644 178.163 23.5911C178.39 23.8044 178.657 23.9711 178.963 24.0911C179.27 24.2111 179.597 24.2711 179.943 24.2711C180.623 24.2711 181.257 24.0378 181.843 23.5711V26.6511C180.95 27.0378 180.103 27.2311 179.303 27.2311C178.557 27.2311 177.843 27.1044 177.163 26.8511C176.497 26.5978 175.903 26.2378 175.383 25.7711C174.877 25.2911 174.47 24.7244 174.163 24.0711C173.857 23.4044 173.703 22.6644 173.703 21.8511C173.703 21.0378 173.85 20.2978 174.143 19.6311C174.437 18.9511 174.837 18.3711 175.343 17.8911C175.85 17.3978 176.45 17.0178 177.143 16.7511C177.85 16.4711 178.603 16.3311 179.403 16.3311C180.283 16.3311 181.097 16.5178 181.843 16.8911V19.9711ZM191.408 20.2911C191.288 19.7844 191.041 19.3778 190.668 19.0711C190.295 18.7644 189.841 18.6111 189.308 18.6111C188.748 18.6111 188.288 18.7578 187.928 19.0511C187.581 19.3444 187.361 19.7578 187.268 20.2911H191.408ZM187.168 22.3911C187.168 23.9511 187.901 24.7311 189.368 24.7311C190.155 24.7311 190.748 24.4111 191.148 23.7711H194.648C193.941 26.1178 192.175 27.2911 189.348 27.2911C188.481 27.2911 187.688 27.1644 186.968 26.9111C186.248 26.6444 185.628 26.2711 185.108 25.7911C184.601 25.3111 184.208 24.7378 183.928 24.0711C183.648 23.4044 183.508 22.6578 183.508 21.8311C183.508 20.9778 183.641 20.2111 183.908 19.5311C184.175 18.8378 184.555 18.2511 185.048 17.7711C185.541 17.2911 186.135 16.9244 186.828 16.6711C187.535 16.4044 188.328 16.2711 189.208 16.2711C190.075 16.2711 190.855 16.4044 191.548 16.6711C192.241 16.9244 192.828 17.2978 193.308 17.7911C193.788 18.2844 194.155 18.8911 194.408 19.6111C194.661 20.3178 194.788 21.1178 194.788 22.0111V22.3911H187.168ZM203.657 19.2911C202.991 18.9444 202.337 18.7711 201.697 18.7711C201.364 18.7711 201.091 18.8378 200.877 18.9711C200.677 19.1044 200.577 19.2844 200.577 19.5111C200.577 19.6311 200.591 19.7311 200.617 19.8111C200.657 19.8778 200.731 19.9444 200.837 20.0111C200.957 20.0778 201.124 20.1378 201.337 20.1911C201.564 20.2444 201.857 20.3111 202.217 20.3911C203.217 20.5911 203.964 20.9511 204.457 21.4711C204.951 21.9778 205.197 22.6311 205.197 23.4311C205.197 24.0311 205.077 24.5711 204.837 25.0511C204.597 25.5311 204.264 25.9378 203.837 26.2711C203.411 26.5911 202.897 26.8378 202.297 27.0111C201.697 27.1978 201.037 27.2911 200.317 27.2911C198.931 27.2911 197.564 26.8978 196.217 26.1111L197.537 23.5511C198.551 24.2444 199.511 24.5911 200.417 24.5911C200.751 24.5911 201.024 24.5178 201.237 24.3711C201.451 24.2244 201.557 24.0378 201.557 23.8111C201.557 23.6778 201.537 23.5711 201.497 23.4911C201.471 23.3978 201.404 23.3178 201.297 23.2511C201.191 23.1711 201.031 23.1044 200.817 23.0511C200.617 22.9844 200.351 22.9178 200.017 22.8511C198.897 22.6244 198.111 22.2911 197.657 21.8511C197.217 21.3978 196.997 20.7778 196.997 19.9911C196.997 19.4178 197.104 18.9044 197.317 18.4511C197.531 17.9844 197.837 17.5911 198.237 17.2711C198.637 16.9511 199.117 16.7044 199.677 16.5311C200.251 16.3578 200.884 16.2711 201.577 16.2711C202.711 16.2711 203.811 16.4911 204.877 16.9311L203.657 19.2911Z" fill="#555555"/>
<path class="experiences" fill-rule="evenodd" clip-rule="evenodd" d="M22.9934 8.45739C22.9837 8.10358 22.6937 7.79778 22.282 7.70754L13.176 5.7118L13.1739 5.71132L9.74442 4.95965C9.33826 4.87044 8.9087 5.01298 8.68791 5.31053C7.31434 7.16214 6.23414 9.22209 5.56412 11.2678C4.44563 14.682 4.63548 17.611 6.11315 19.7382C6.96806 20.9689 8.22263 21.8721 9.77278 22.3866L6.26174 33.1051L1.19874 31.9954C0.689158 31.8837 0.166298 32.1365 0.0318347 32.5604C-0.102724 32.9842 0.201633 33.4184 0.711695 33.5303L6.68337 34.8393L12.6699 36.1513C12.7515 36.1692 12.8334 36.1778 12.9141 36.1778C13.3373 36.1778 13.724 35.9423 13.8369 35.5863C13.9714 35.1625 13.6671 34.7283 13.157 34.6165L8.1087 33.51L11.6191 22.7937C11.9632 22.8333 12.3075 22.8537 12.6495 22.8537C16.9079 22.8537 20.4249 19.8787 22.0573 14.8957C22.7275 12.8495 23.0511 10.6231 22.9934 8.45739ZM20.2141 14.4787C18.8218 18.7289 15.994 21.2664 12.6493 21.2664C12.1622 21.2664 11.6662 21.2118 11.1748 21.1041C9.70297 20.7814 8.5246 20.0347 7.76739 18.9445C6.86902 17.6512 6.56658 15.9451 6.86368 13.9356C8.13879 14.1079 9.34284 14.1748 10.484 14.1748C12.3619 14.1748 14.0728 13.9987 15.6635 13.8351H15.6635H15.6635C17.4578 13.6505 19.0503 13.4874 20.4656 13.6345C20.3885 13.919 20.3051 14.2008 20.2141 14.4787ZM15.429 12.2598C17.3189 12.0654 19.1214 11.8812 20.8143 12.0727C20.9883 11.0874 21.0816 10.0837 21.0896 9.08788L13.3679 7.39547C13.0986 7.80016 12.7968 8.3112 12.4878 8.88724C12.3294 9.18256 11.9804 9.35796 11.615 9.35796C11.4851 9.35796 11.3531 9.33582 11.2268 9.28899C10.7451 9.1105 10.5286 8.64128 10.7432 8.24096C10.9408 7.87247 11.1945 7.41992 11.4695 6.97944L9.95213 6.64681C8.845 8.23652 7.96985 9.96686 7.40716 11.6848C7.33086 11.9176 7.2621 12.147 7.19917 12.3739C10.3017 12.7871 13.0119 12.5085 15.429 12.2598Z" fill="#555555"/>
<path class="experiences" d="M41.3212 34.7093C41.3208 34.7094 41.3203 34.7094 41.3199 34.7095L35.3862 36.0042C35.9448 35.8822 41.3217 34.7092 41.3212 34.7093Z" fill="#555555"/>
<path class="experiences" d="M35.4285 36.0041C35.3709 36.0167 35.3389 36.0237 35.3389 36.0237L35.4285 36.0041Z" fill="#555555"/>
<path class="experiences" fill-rule="evenodd" clip-rule="evenodd" d="M47.9683 32.4423C47.834 32.0207 47.3114 31.7693 46.8021 31.8802L41.7424 32.9842L38.2337 22.3213C39.7828 21.8094 41.0366 20.9109 41.8908 19.6866C43.3675 17.5705 43.5572 14.6567 42.4396 11.2603C41.7699 9.22524 40.6904 7.176 39.3178 5.33402C39.097 5.03802 38.6681 4.89614 38.262 4.98496L25.733 7.71865C25.3216 7.80842 25.0316 8.11263 25.0222 8.4646C24.9703 10.4033 25.2279 12.3902 25.7679 14.2518C25.7739 14.2779 25.7814 14.3038 25.7904 14.3292C25.844 14.5104 25.899 14.6909 25.9578 14.8695C27.5888 19.8262 31.1032 22.7858 35.359 22.7861H35.3597C35.7012 22.7861 36.0453 22.7658 36.3889 22.7264L39.897 33.387L34.852 34.4877C34.3423 34.5989 34.0382 35.0309 34.1726 35.4526C34.2855 35.8067 34.672 36.0409 35.0947 36.0409C35.1753 36.0409 35.2573 36.0324 35.3388 36.0146L41.3197 34.7095H41.32L47.289 33.4072C47.7986 33.2959 48.1027 32.8639 47.9683 32.4423ZM26.9248 9.09157L38.0545 6.66328C39.161 8.24471 40.0355 9.96606 40.5978 11.6752C40.7609 12.1708 40.8928 12.6528 40.9949 13.1206C40.4143 13.073 39.8227 13.0656 39.22 13.0855C39.1176 12.5075 38.9668 11.905 38.8383 11.4377C38.7216 11.0125 38.21 10.746 37.6962 10.8428C37.1822 10.9394 36.8602 11.3624 36.9771 11.7877C37.1219 12.3145 37.2357 12.8 37.3133 13.2159C36.8812 13.2567 36.4444 13.3026 36.0025 13.3492C33.5249 13.6108 30.7356 13.9049 27.4974 13.4271C27.1314 12.0211 26.936 10.5479 26.9248 9.09157ZM35.3592 21.2069H35.3597C35.8461 21.2069 36.3416 21.1527 36.8326 21.0454C38.3035 20.7245 39.481 19.9815 40.2378 18.897C41.0099 17.7905 41.3415 16.3799 41.2303 14.7349C39.7643 14.5443 38.1155 14.718 36.2443 14.9155L36.2431 14.9156C34.6568 15.083 32.9498 15.2632 31.0679 15.2632C30.103 15.2632 29.0908 15.214 28.0268 15.0933C29.4842 18.9347 32.1889 21.2067 35.3592 21.2069Z" fill="#555555"/>
<path class="experiences" d="M24 0C23.4478 0 23 0.319518 23 0.713688V2.5752C23 2.96937 23.4478 3.28889 24 3.28889C24.5522 3.28889 25 2.96937 25 2.5752V0.713688C25 0.319518 24.5523 0 24 0Z" fill="#555555"/>
<path class="experiences" d="M20.8759 3.77036L19.6805 2.02611C19.4284 1.65825 18.8757 1.53485 18.4458 1.75075C18.0161 1.9665 17.8721 2.43961 18.1241 2.80747L19.3195 4.55172C19.4875 4.79681 19.7889 4.93333 20.0986 4.93333C20.2537 4.93333 20.4107 4.89912 20.5542 4.82708C20.9839 4.61133 21.1279 4.13823 20.8759 3.77036Z" fill="#555555"/>
<path class="experiences" d="M29.5542 1.75072C29.1243 1.5349 28.5717 1.65821 28.3195 2.02608L27.1242 3.77035C26.872 4.13814 27.0161 4.61133 27.4459 4.82708C27.5893 4.89912 27.7464 4.93333 27.9015 4.93333C28.2111 4.93333 28.5125 4.79681 28.6805 4.55172L29.8759 2.80745C30.128 2.43958 29.9839 1.96647 29.5542 1.75072Z" fill="#555555"/>
<path class="experiences" d="M39.954 8.80246C39.9535 8.8014 39.9527 8.79935 39.952 8.79747C39.789 8.36898 39.2348 8.12743 38.7102 8.25738C38.1822 8.38806 37.8835 8.84496 38.0429 9.27786C38.0447 9.2822 38.0477 9.29023 38.0495 9.29498C38.1842 9.64363 38.5771 9.86667 39.001 9.86667C39.0999 9.86667 39.2007 9.85447 39.3001 9.82884C39.8263 9.69349 40.1189 9.23398 39.954 8.80246Z" fill="#555555"/>
<path class="experiences" d="M9 11.5111C9.55228 11.5111 10 11.143 10 10.6889C10 10.2348 9.55228 9.86667 9 9.86667C8.44772 9.86667 8 10.2348 8 10.6889C8 11.143 8.44772 11.5111 9 11.5111Z" fill="#555555"/>
</svg>
