<svg width="147" height="29" viewBox="0 0 147 29" fill="none" xmlns="http://www.w3.org/2000/svg">
<path id="hotels" d="M84.5 11.9971H90.16V6.17714H94.08V21.2571H90.16V15.0371H84.5V21.2571H80.58V6.17714H84.5V11.9971ZM100.32 16.0771C100.32 16.4238 100.38 16.7438 100.5 17.0371C100.633 17.3171 100.8 17.5638 101 17.7771C101.213 17.9905 101.46 18.1571 101.74 18.2771C102.033 18.3971 102.34 18.4571 102.66 18.4571C102.98 18.4571 103.28 18.3971 103.56 18.2771C103.853 18.1571 104.1 17.9905 104.3 17.7771C104.513 17.5638 104.68 17.3171 104.8 17.0371C104.933 16.7438 105 16.4305 105 16.0971C105 15.7771 104.933 15.4771 104.8 15.1971C104.68 14.9038 104.513 14.6505 104.3 14.4371C104.1 14.2238 103.853 14.0571 103.56 13.9371C103.28 13.8171 102.98 13.7571 102.66 13.7571C102.34 13.7571 102.033 13.8171 101.74 13.9371C101.46 14.0571 101.213 14.2238 101 14.4371C100.8 14.6505 100.633 14.8971 100.5 15.1771C100.38 15.4571 100.32 15.7571 100.32 16.0771ZM96.5002 16.0371C96.5002 15.2771 96.6535 14.5705 96.9602 13.9171C97.2668 13.2505 97.6935 12.6771 98.2402 12.1971C98.7868 11.7038 99.4335 11.3171 100.18 11.0371C100.94 10.7571 101.767 10.6171 102.66 10.6171C103.54 10.6171 104.353 10.7571 105.1 11.0371C105.86 11.3038 106.513 11.6838 107.06 12.1771C107.62 12.6571 108.053 13.2371 108.36 13.9171C108.667 14.5838 108.82 15.3238 108.82 16.1371C108.82 16.9505 108.66 17.6971 108.34 18.3771C108.033 19.0438 107.607 19.6238 107.06 20.1171C106.513 20.5971 105.853 20.9705 105.08 21.2371C104.32 21.5038 103.493 21.6371 102.6 21.6371C101.72 21.6371 100.907 21.5038 100.16 21.2371C99.4135 20.9705 98.7668 20.5905 98.2202 20.0971C97.6868 19.6038 97.2668 19.0171 96.9602 18.3371C96.6535 17.6438 96.5002 16.8771 96.5002 16.0371ZM115.003 14.0171V21.2571H111.383V14.0171H110.183V10.9971H111.383V7.91714H115.003V10.9971H117.063V14.0171H115.003ZM126.119 14.6371C125.999 14.1305 125.752 13.7238 125.379 13.4171C125.006 13.1105 124.552 12.9571 124.019 12.9571C123.459 12.9571 122.999 13.1038 122.639 13.3971C122.292 13.6905 122.072 14.1038 121.979 14.6371H126.119ZM121.879 16.7371C121.879 18.2971 122.612 19.0771 124.079 19.0771C124.866 19.0771 125.459 18.7571 125.859 18.1171H129.359C128.652 20.4638 126.886 21.6371 124.059 21.6371C123.192 21.6371 122.399 21.5105 121.679 21.2571C120.959 20.9905 120.339 20.6171 119.819 20.1371C119.312 19.6571 118.919 19.0838 118.639 18.4171C118.359 17.7505 118.219 17.0038 118.219 16.1771C118.219 15.3238 118.352 14.5571 118.619 13.8771C118.886 13.1838 119.266 12.5971 119.759 12.1171C120.252 11.6371 120.846 11.2705 121.539 11.0171C122.246 10.7505 123.039 10.6171 123.919 10.6171C124.786 10.6171 125.566 10.7505 126.259 11.0171C126.952 11.2705 127.539 11.6438 128.019 12.1371C128.499 12.6305 128.866 13.2371 129.119 13.9571C129.372 14.6638 129.499 15.4638 129.499 16.3571V16.7371H121.879ZM135.188 4.65714V21.2571H131.568V4.65714H135.188ZM144.462 13.6371C143.795 13.2905 143.142 13.1171 142.502 13.1171C142.169 13.1171 141.895 13.1838 141.682 13.3171C141.482 13.4505 141.382 13.6305 141.382 13.8571C141.382 13.9771 141.395 14.0771 141.422 14.1571C141.462 14.2238 141.535 14.2905 141.642 14.3571C141.762 14.4238 141.929 14.4838 142.142 14.5371C142.369 14.5905 142.662 14.6571 143.022 14.7371C144.022 14.9371 144.769 15.2971 145.262 15.8171C145.755 16.3238 146.002 16.9771 146.002 17.7771C146.002 18.3771 145.882 18.9171 145.642 19.3971C145.402 19.8771 145.069 20.2838 144.642 20.6171C144.215 20.9371 143.702 21.1838 143.102 21.3571C142.502 21.5438 141.842 21.6371 141.122 21.6371C139.735 21.6371 138.369 21.2438 137.022 20.4571L138.342 17.8971C139.355 18.5905 140.315 18.9371 141.222 18.9371C141.555 18.9371 141.829 18.8638 142.042 18.7171C142.255 18.5705 142.362 18.3838 142.362 18.1571C142.362 18.0238 142.342 17.9171 142.302 17.8371C142.275 17.7438 142.209 17.6638 142.102 17.5971C141.995 17.5171 141.835 17.4505 141.622 17.3971C141.422 17.3305 141.155 17.2638 140.822 17.1971C139.702 16.9705 138.915 16.6371 138.462 16.1971C138.022 15.7438 137.802 15.1238 137.802 14.3371C137.802 13.7638 137.909 13.2505 138.122 12.7971C138.335 12.3305 138.642 11.9371 139.042 11.6171C139.442 11.2971 139.922 11.0505 140.482 10.8771C141.055 10.7038 141.689 10.6171 142.382 10.6171C143.515 10.6171 144.615 10.8371 145.682 11.2771L144.462 13.6371Z" fill="#555555"/>
<path fill-rule="evenodd" clip-rule="evenodd" d="M46.4712 2.49991V12.5595C47.901 12.7406 49 13.7714 49 15.0121V21.2386C49 21.6734 48.5769 22.0259 48.0548 22.0259H47.0424V25.9097C47.0424 26.3444 46.6193 26.6969 46.0972 26.6969H44.391V28.2127C44.391 28.6475 43.9679 29 43.4458 29C42.9237 29 42.5006 28.6475 42.5006 28.2127V26.6969H6.49949V28.2127C6.49949 28.6475 6.07631 29 5.55432 29C5.03234 29 4.60915 28.6475 4.60915 28.2127V26.6969H2.90293C2.38095 26.6969 1.95776 26.3444 1.95776 25.9097V22.0259H0.94517C0.423184 22.0259 0 21.6734 0 21.2386V15.0121C0 13.7714 1.09904 12.7407 2.52877 12.5596V2.49991C2.52877 1.12147 3.8752 0 5.53013 0H43.4699C45.1248 0 46.4712 1.12147 46.4712 2.49991ZM5.53 1.57451C4.9174 1.57451 4.41898 1.98966 4.41898 2.49991V12.5312H7.73741C7.07705 11.9391 6.40535 11.3164 5.70958 10.6502C5.4002 10.3539 5.4002 9.91302 5.70971 9.61681C8.44377 6.99955 10.7332 5.0926 13.8755 2.81533C14.2312 2.55753 14.7607 2.55753 15.1163 2.81533C18.2585 5.0926 20.548 6.99955 23.2821 9.61681C23.5916 9.91302 23.5916 10.3539 23.2822 10.6502C22.5865 11.3164 21.9147 11.9391 21.2543 12.5312H27.7449C27.0845 11.9392 26.413 11.3165 25.7172 10.6502C25.4078 10.3539 25.4079 9.91302 25.7173 9.61681C28.4516 6.99923 30.741 5.09229 33.883 2.81533C34.2387 2.55753 34.7681 2.55753 35.1238 2.81533C38.2656 5.09218 40.5551 6.99913 43.2895 9.61681C43.5989 9.91302 43.599 10.3539 43.2897 10.6502C42.594 11.3164 41.9223 11.9391 41.262 12.5312H44.5808V2.49991C44.5808 1.98966 44.0823 1.57451 43.4697 1.57451H5.53ZM30.3529 12.5312C29.4832 11.7876 28.6047 10.9975 27.6876 10.1336C29.947 8.00409 31.9475 6.33783 34.5035 4.45629C37.0595 6.33773 39.06 8.00409 41.3195 10.1336C40.4025 10.9975 39.5239 11.7876 38.6542 12.5312H30.3529ZM7.68007 10.1336C8.59727 10.9975 9.47589 11.7875 10.3456 12.5312H18.6467C19.5165 11.7875 20.3951 10.9975 21.3122 10.1336C19.0531 8.00451 17.0522 6.33794 14.4961 4.45629C11.94 6.33794 9.93915 8.00451 7.68007 10.1336ZM45.152 25.1224H3.8481V22.0259H45.152V25.1224ZM1.89034 20.4513H47.1097V15.0121C47.1097 14.5124 46.6214 14.1057 46.0213 14.1057H2.97867C2.37855 14.1057 1.89034 14.5124 1.89034 15.0121V20.4513Z" fill="#555555"/>
</svg>
